<svg width="14" height="14" viewBox="0 0 14 14" fill="none" xmlns="http://www.w3.org/2000/svg">
<path d="M9.99767 3.32593C9.86438 3.32593 9.73409 3.36545 9.62326 3.4395C9.51244 3.51355 9.42606 3.6188 9.37505 3.74195C9.32405 3.86509 9.3107 4.00059 9.3367 4.13132C9.36271 4.26204 9.42689 4.38212 9.52114 4.47637C9.61539 4.57062 9.73547 4.6348 9.86619 4.66081C9.99692 4.68681 10.1324 4.67346 10.2556 4.62246C10.3787 4.57145 10.484 4.48507 10.558 4.37425C10.6321 4.26342 10.6716 4.13313 10.6716 3.99984C10.6716 3.82111 10.6006 3.6497 10.4742 3.52331C10.3478 3.39693 10.1764 3.32593 9.99767 3.32593ZM12.581 4.68499C12.5701 4.21903 12.4828 3.75802 12.3227 3.32031C12.1799 2.9458 11.9576 2.60668 11.6712 2.32629C11.3931 2.03843 11.0532 1.81759 10.6772 1.68046C10.2406 1.51544 9.77912 1.42617 9.31252 1.41651C8.71723 1.38281 8.52629 1.38281 6.99875 1.38281C5.47122 1.38281 5.28028 1.38281 4.68499 1.41651C4.21839 1.42617 3.75686 1.51544 3.32031 1.68046C2.94499 1.81897 2.60537 2.03963 2.32629 2.32629C2.03843 2.60438 1.81759 2.94429 1.68046 3.32031C1.51544 3.75686 1.42617 4.21839 1.41651 4.68499C1.38281 5.28028 1.38281 5.47122 1.38281 6.99875C1.38281 8.52629 1.38281 8.71723 1.41651 9.31252C1.42617 9.77912 1.51544 10.2406 1.68046 10.6772C1.81759 11.0532 2.03843 11.3931 2.32629 11.6712C2.60537 11.9579 2.94499 12.1785 3.32031 12.3171C3.75686 12.4821 4.21839 12.5713 4.68499 12.581C5.28028 12.6147 5.47122 12.6147 6.99875 12.6147C8.52629 12.6147 8.71723 12.6147 9.31252 12.581C9.77912 12.5713 10.2406 12.4821 10.6772 12.3171C11.0532 12.1799 11.3931 11.9591 11.6712 11.6712C11.9589 11.3919 12.1813 11.0525 12.3227 10.6772C12.4828 10.2395 12.5701 9.77848 12.581 9.31252C12.581 8.71723 12.6147 8.52629 12.6147 6.99875C12.6147 5.47122 12.6147 5.28028 12.581 4.68499ZM11.5701 9.24513C11.566 9.60161 11.5015 9.95482 11.3792 10.2897C11.2895 10.5341 11.1455 10.7549 10.958 10.9355C10.7758 11.1211 10.5555 11.2649 10.3122 11.3567C9.97728 11.479 9.62408 11.5436 9.2676 11.5477C8.706 11.5757 8.49821 11.5814 7.02122 11.5814C5.54423 11.5814 5.33644 11.5814 4.77484 11.5477C4.40469 11.5546 4.03612 11.4976 3.68535 11.3792C3.45273 11.2826 3.24245 11.1393 3.0676 10.958C2.8812 10.7776 2.73897 10.5566 2.65202 10.3122C2.51491 9.97248 2.43886 9.61126 2.42738 9.24513C2.42738 8.68354 2.39368 8.47575 2.39368 6.99875C2.39368 5.52176 2.39368 5.31397 2.42738 4.75238C2.42989 4.38793 2.49643 4.02677 2.62394 3.68535C2.7228 3.44831 2.87456 3.237 3.0676 3.0676C3.23821 2.8745 3.44908 2.72115 3.68535 2.61832C4.02767 2.49479 4.38846 2.43023 4.75238 2.42738C5.31397 2.42738 5.52176 2.39368 6.99875 2.39368C8.47575 2.39368 8.68354 2.39368 9.24513 2.42738C9.60161 2.43147 9.95482 2.49603 10.2897 2.61832C10.5449 2.71303 10.774 2.86702 10.958 3.0676C11.142 3.2401 11.2858 3.45101 11.3792 3.68535C11.504 4.02732 11.5686 4.38834 11.5701 4.75238C11.5982 5.31397 11.6038 5.52176 11.6038 6.99875C11.6038 8.47575 11.5982 8.68354 11.5701 9.24513ZM6.99875 4.11778C6.42919 4.11889 5.87274 4.2888 5.3997 4.60604C4.92667 4.92328 4.55828 5.37361 4.34109 5.90014C4.12389 6.42666 4.06764 7.00576 4.17944 7.56424C4.29123 8.12272 4.56606 8.63554 4.9692 9.03789C5.37233 9.44024 5.88568 9.71407 6.44438 9.82478C7.00308 9.93549 7.58206 9.87811 8.10817 9.65989C8.63427 9.44167 9.08389 9.07241 9.4002 8.59875C9.71652 8.1251 9.88535 7.56832 9.88535 6.99875C9.88609 6.61974 9.81189 6.24431 9.66702 5.89407C9.52215 5.54384 9.30947 5.22569 9.0412 4.95795C8.77293 4.6902 8.45438 4.47814 8.10386 4.33395C7.75334 4.18976 7.37777 4.11629 6.99875 4.11778ZM6.99875 8.86886C6.62888 8.86886 6.26732 8.75918 5.95978 8.55369C5.65224 8.3482 5.41254 8.05613 5.271 7.71441C5.12946 7.3727 5.09242 6.99668 5.16458 6.63391C5.23674 6.27115 5.41485 5.93793 5.67639 5.67639C5.93793 5.41485 6.27115 5.23674 6.63391 5.16458C6.99668 5.09242 7.3727 5.12946 7.71441 5.271C8.05613 5.41254 8.3482 5.65224 8.55369 5.95978C8.75918 6.26732 8.86886 6.62888 8.86886 6.99875C8.86886 7.24434 8.82049 7.48752 8.72651 7.71441C8.63253 7.94131 8.49478 8.14747 8.32112 8.32112C8.14747 8.49478 7.94131 8.63253 7.71441 8.72651C7.48752 8.82049 7.24434 8.86886 6.99875 8.86886Z" fill="white"/>
</svg>
