<svg width="428" height="100" viewBox="0 0 428 100" fill="none" xmlns="http://www.w3.org/2000/svg">
<path d="M428 100C412.138 88.1408 390.362 88.1408 374.5 100C358.638 88.1408 336.862 88.1408 321 100C305.138 88.1408 283.362 88.1408 267.5 100C251.638 88.1408 229.862 88.1408 214 100C198.138 88.1407 176.362 88.1407 160.5 100C144.638 88.1407 122.862 88.1407 107 100C91.1383 88.1407 69.3617 88.1407 53.5 100C37.6383 88.1407 15.8617 88.1407 0 100L8.74228e-06 -3.74169e-05L428 0L428 100Z" fill="white"/>
</svg>
