<svg width="33" height="33" viewBox="0 0 33 33" fill="none" xmlns="http://www.w3.org/2000/svg">
<path fill-rule="evenodd" clip-rule="evenodd" d="M16.1471 32.3503C25.065 32.3503 32.2943 25.1544 32.2943 16.2779C32.2943 7.4014 25.065 0.205566 16.1471 0.205566C7.22932 0.205566 0 7.4014 0 16.2779C0 25.1544 7.22932 32.3503 16.1471 32.3503ZM26.6771 20.6204C27.2497 19.2444 27.5444 17.7696 27.5444 16.2802H16.15L4.75561 16.2802C4.75561 17.7696 5.05034 19.2444 5.62296 20.6204C6.19558 21.9964 7.03489 23.2467 8.09295 24.2999C9.15102 25.3531 10.4071 26.1885 11.7896 26.7585C13.172 27.3284 14.6537 27.6218 16.15 27.6218C17.6463 27.6218 19.128 27.3284 20.5105 26.7585C21.8929 26.1885 23.149 25.3531 24.2071 24.2999C25.2651 23.2467 26.1044 21.9964 26.6771 20.6204Z" fill="white"/>
</svg>
