<svg width="14" height="14" viewBox="0 0 14 14" fill="none" xmlns="http://www.w3.org/2000/svg">
<g clip-path="url(#clip0_4_106)">
<path d="M13.1677 2.47709C13.1678 2.3779 13.1415 2.28046 13.0917 2.19469C13.0418 2.10893 12.9702 2.03791 12.8839 1.98886C12.7977 1.93981 12.7 1.91449 12.6008 1.91548C12.5017 1.91646 12.4045 1.94372 12.3193 1.99447C11.9906 2.19012 11.6367 2.33995 11.2674 2.43981C10.74 1.9873 10.0675 1.73968 9.37258 1.74221C8.61026 1.74308 7.87811 2.04018 7.33074 2.57077C6.78337 3.10136 6.46362 3.8239 6.43902 4.58583C4.93618 4.34617 3.57412 3.56178 2.61257 2.38221C2.55463 2.31192 2.48064 2.25659 2.39684 2.22089C2.31303 2.18519 2.22187 2.17017 2.13105 2.17709C2.04027 2.18456 1.95268 2.21404 1.87585 2.26296C1.79903 2.31189 1.73527 2.37879 1.6901 2.45789C1.45846 2.86213 1.32542 3.3153 1.30179 3.78061C1.27816 4.24592 1.3646 4.71024 1.55409 5.13588L1.553 5.13697C1.46783 5.18943 1.39754 5.26286 1.34886 5.35023C1.30018 5.43761 1.27473 5.53602 1.27494 5.63605C1.27391 5.71856 1.27886 5.80104 1.28975 5.88284C1.34711 6.58948 1.66028 7.25092 2.17053 7.74312C2.13592 7.80907 2.11479 7.88125 2.10839 7.95545C2.10198 8.02965 2.11043 8.10438 2.13324 8.17528C2.35569 8.86837 2.82877 9.45351 3.4599 9.81619C2.81869 10.0641 2.12634 10.1506 1.44386 10.0679C1.31754 10.0521 1.18958 10.0796 1.08098 10.1461C0.972379 10.2125 0.889578 10.3139 0.84616 10.4335C0.802743 10.5532 0.801286 10.6841 0.84203 10.8047C0.882774 10.9253 0.963299 11.0285 1.0704 11.0973C2.24418 11.8533 3.61087 12.2553 5.00704 12.2551C6.59032 12.2729 8.1351 11.767 9.40109 10.816C10.6671 9.86498 11.5833 8.52227 12.0072 6.99669C12.2055 6.33212 12.3067 5.64239 12.3078 4.94887C12.3078 4.91212 12.3078 4.87428 12.3072 4.83644C12.6004 4.52023 12.8276 4.14866 12.9753 3.74352C13.1231 3.33839 13.1885 2.90783 13.1677 2.47709ZM11.3107 4.28088C11.2179 4.39059 11.171 4.5318 11.1796 4.67521C11.1851 4.76787 11.1846 4.86109 11.1846 4.94887C11.1834 5.53492 11.0975 6.11772 10.9295 6.67918C10.5833 7.97724 9.81149 9.12157 8.73768 9.92889C7.66387 10.7362 6.3502 11.1598 5.00704 11.1319C4.52456 11.132 4.04375 11.0753 3.57454 10.963C4.17287 10.7702 4.73232 10.4729 5.22696 10.0849C5.31807 10.0132 5.38474 9.91504 5.41784 9.8039C5.45094 9.69277 5.44884 9.57412 5.41183 9.46423C5.37481 9.35434 5.3047 9.2586 5.21111 9.19014C5.11753 9.12168 5.00505 9.08385 4.88911 9.08186C4.42233 9.0746 3.97659 8.88643 3.64581 8.55701C3.72972 8.5411 3.81309 8.52136 3.8959 8.49778C4.01721 8.46324 4.12337 8.38889 4.19729 8.28669C4.2712 8.18449 4.30857 8.06039 4.30338 7.93437C4.29818 7.80835 4.25073 7.68774 4.16866 7.59197C4.08658 7.49619 3.97467 7.43083 3.85093 7.40639C3.57998 7.35289 3.32502 7.23762 3.10587 7.06954C2.88672 6.90147 2.70928 6.68512 2.58734 6.43731C2.68884 6.45117 2.79098 6.45977 2.89336 6.46309C3.015 6.46493 3.13406 6.42803 3.23334 6.35774C3.33262 6.28744 3.40697 6.1874 3.44564 6.07206C3.48269 5.95568 3.48078 5.83038 3.44021 5.71518C3.39963 5.59998 3.32259 5.50115 3.22078 5.43368C2.97376 5.26912 2.77142 5.04586 2.63187 4.78389C2.49232 4.52193 2.41992 4.22944 2.42117 3.93263C2.42117 3.89534 2.42226 3.85805 2.42446 3.8213C3.68314 4.99518 5.31572 5.68717 7.03458 5.77536C7.12135 5.77878 7.20775 5.76244 7.28727 5.72757C7.3668 5.6927 7.43736 5.64022 7.49362 5.57409C7.54932 5.50732 7.58876 5.42853 7.60884 5.34392C7.62891 5.25932 7.62908 5.17121 7.60931 5.08653C7.5772 4.95252 7.56082 4.81521 7.5605 4.6774C7.56101 4.19698 7.75209 3.73638 8.0918 3.39667C8.43151 3.05696 8.89212 2.86589 9.37254 2.86538C9.61972 2.86472 9.86434 2.9153 10.091 3.01395C10.3176 3.11259 10.5214 3.25715 10.6893 3.43849C10.7541 3.50817 10.8356 3.56013 10.9261 3.58941C11.0167 3.61869 11.1132 3.62433 11.2065 3.60578C11.4372 3.56089 11.6646 3.50042 11.8871 3.4248C11.7353 3.73535 11.5413 4.02343 11.3107 4.28088Z" fill="white"/>
</g>
<defs>
<clipPath id="clip0_4_106">
<rect width="13.4783" height="13.4783" fill="white" transform="translate(0.257812 0.257812)"/>
</clipPath>
</defs>
</svg>
